<svg width="95" height="84" viewBox="0 0 95 84" fill="none" xmlns="http://www.w3.org/2000/svg">
<path d="M23.6955 0H90.2172C90.652 0 91.0868 0.450549 91.0868 0.901099V74.7912C91.0868 75.2418 90.652 75.6923 90.2172 75.6923H23.6955C23.2607 75.6923 22.8259 75.2418 22.8259 74.7912V63.0769H24.5651V73.4396H89.3477V2.25275H24.5651V40.5494H22.8259V0.901099C22.8259 0.450549 23.2607 0 23.6955 0V0Z" fill="#EF7F1A"/>
<path fill-rule="evenodd" clip-rule="evenodd" d="M27.6086 5.40662H86.3043V70.2857H27.6086V63.0769H30.6521V67.1319H52.3913V8.56046H30.6521V40.5495H27.6086V5.40662Z" stroke="#EF7F1A" stroke-width="0.869565" stroke-miterlimit="22.9256" stroke-linecap="round" stroke-linejoin="round"/>
<path fill-rule="evenodd" clip-rule="evenodd" d="M30.6521 8.56042H52.3912V67.1318H30.6521V63.0769H44.1304C46.3043 63.0769 48.4782 60.8242 48.4782 58.1209V45.0549C48.4782 42.8022 46.3043 40.5494 44.1304 40.5494H30.6521V8.56042V8.56042Z" stroke="#EF7F1A" stroke-width="0.869565" stroke-miterlimit="22.9256" stroke-linecap="round" stroke-linejoin="round"/>
<path fill-rule="evenodd" clip-rule="evenodd" d="M55 6.75818H85V68.934H55V6.75818V6.75818ZM57.6087 9.91202H81.9565V65.7802H57.6087V37.3955H56.7391C56.3043 37.3955 55.8696 36.945 55.8696 36.4944C55.8696 36.0439 56.3043 35.5933 56.7391 35.5933H57.6087V9.91202V9.91202Z" stroke="#EF7F1A" stroke-width="0.869565" stroke-miterlimit="22.9256" stroke-linecap="round" stroke-linejoin="round"/>
<path d="M93.2609 74.7913H19.3479V82.0001H93.2609V74.7913Z" stroke="#EF7F1A" stroke-width="2.17391" stroke-miterlimit="22.9256" stroke-linecap="round" stroke-linejoin="round"/>
<path d="M60.6522 35.5934H55.8696C55.3893 35.5934 55 35.9968 55 36.4945V36.945C55 37.4427 55.3893 37.8461 55.8696 37.8461H60.6522C61.1324 37.8461 61.5217 37.4427 61.5217 36.945V36.4945C61.5217 35.9968 61.1324 35.5934 60.6522 35.5934Z" stroke="#EF7F1A" stroke-width="0.869565" stroke-miterlimit="22.9256" stroke-linecap="round" stroke-linejoin="round"/>
<path fill-rule="evenodd" clip-rule="evenodd" d="M11.9565 40.5494H44.1304C46.3043 40.5494 48.4782 42.8022 48.4782 45.0549V58.1209C48.4782 60.8242 46.3043 63.0769 44.1304 63.0769H11.9565C10.2173 63.0769 8.47822 61.2747 8.04344 59.4725C4.13039 59.022 1.08691 55.8681 1.08691 51.8132C1.08691 48.2088 4.13039 44.6044 8.04344 44.1538C8.47822 42.3516 10.2173 40.5494 11.9565 40.5494V40.5494Z" stroke="#EF7F1A" stroke-width="2.17391" stroke-miterlimit="22.9256"/>
<path d="M8.04351 54.5166C9.48425 54.5166 10.6522 53.3063 10.6522 51.8133C10.6522 50.3203 9.48425 49.11 8.04351 49.11C6.60277 49.11 5.43481 50.3203 5.43481 51.8133C5.43481 53.3063 6.60277 54.5166 8.04351 54.5166Z" stroke="#EF7F1A" stroke-width="0.869565" stroke-miterlimit="22.9256"/>
<path d="M35.8696 50.4615H31.9565V58.5714H35.8696V50.4615Z" stroke="#EF7F1A" stroke-width="0.869565" stroke-miterlimit="22.9256"/>
<path d="M31.9565 51.3626C31.0869 50.9121 29.7826 50.011 29.3478 49.5604C28.913 48.6593 28.4782 48.2088 28.4782 47.7582C28.4782 47.3077 28.0434 46.8571 28.0434 46.4066C28.0434 45.956 28.0434 45.5055 28.0434 45.0549C27.6087 44.6044 27.6087 44.6044 27.6087 44.6044C27.1739 44.6044 27.1739 44.6044 26.7391 44.6044C26.7391 44.6044 26.3043 44.6044 26.3043 45.0549C25.8695 45.0549 25.8695 45.5055 25.8695 46.4066C25.8695 46.8571 25.8695 47.7582 25.8695 48.2088C25.8695 48.6593 25.8695 49.5604 26.3043 50.011C26.3043 50.4615 26.7391 50.4615 26.7391 50.4615C26.7391 50.4615 26.7391 50.4615 25.8695 50.4615C25 50.4615 23.2608 50.4615 22.3913 50.9121C21.5217 50.9121 21.5217 50.9121 21.5217 50.9121C21.5217 50.9121 21.0869 51.3626 21.0869 51.8132V52.2637C21.0869 52.7143 21.5217 52.7143 21.5217 53.1648V53.6154V54.0659C21.5217 54.5165 21.9565 54.5165 21.9565 54.967H22.3913C22.3913 54.967 22.3913 54.967 21.9565 55.4176C21.9565 55.4176 21.9565 55.4176 21.9565 55.8681C21.9565 56.3187 21.9565 56.3187 22.3913 56.7692L22.826 57.2198V57.6703C22.826 58.1209 22.826 58.1208 23.2608 58.5714C23.2608 58.5714 23.6956 58.5714 24.5652 59.0219C25.8695 59.0219 27.6087 59.0219 28.913 58.5714C30.2174 58.5714 31.0869 58.1209 31.9565 57.6703" stroke="#EF7F1A" stroke-width="0.869565" stroke-miterlimit="22.9256"/>
<path d="M8.91289 54.0659C8.91289 53.6154 8.91289 52.7143 8.47811 52.2637C8.04333 51.8132 6.73898 51.8132 5.43463 52.7143C3.6955 53.6154 2.39115 55.8681 2.39115 57.6703C1.95637 59.9231 3.26072 62.6264 4.99985 64.4286C7.17376 65.7802 10.2172 67.1319 12.3912 68.0329C14.9998 68.934 16.739 69.8351 17.6085 70.7362C18.9129 72.0879 18.9129 73.4395 19.3477 74.7912" stroke="#EF7F1A" stroke-width="0.869565" stroke-miterlimit="22.9256"/>
<path d="M11.9565 63.0769C13.6957 64.4286 15 66.2308 15.8696 67.5824C17.1739 68.934 18.4783 69.8351 18.9131 70.7362C19.3478 72.0879 19.3478 73.4395 19.3478 74.7912" stroke="#EF7F1A" stroke-width="0.869565" stroke-miterlimit="22.9256"/>
</svg>
